<?xml version="1.0" encoding="utf-8"?>
<!-- Generator: Adobe Illustrator 17.1.0, SVG Export Plug-In . SVG Version: 6.00 Build 0)  -->
<!DOCTYPE svg PUBLIC "-//W3C//DTD SVG 1.1//EN" "http://www.w3.org/Graphics/SVG/1.1/DTD/svg11.dtd">
<svg version="1.1" xmlns="http://www.w3.org/2000/svg" xmlns:xlink="http://www.w3.org/1999/xlink" x="0px" y="0px"
	 viewBox="0 0 800 500" enable-background="new 0 0 800 500" xml:space="preserve">
<g id="bg">
	<rect fill="#095093" width="800" height="500"/>
</g>
<g id="envelop">
	<rect x="127.7" y="193" fill="#F9F9FA" width="544.6" height="248.8"/>
	<polygon fill="#EFEFEF" points="128.1,193 400.2,33.6 672.3,193 	"/>
</g>
<g id="Layer_8">
	<polyline fill="#E2E2E2" points="153,207.2 153,193 127.7,193 153,207.2 	"/>
	<polyline fill="#E2E2E2" points="647.2,207.2 647.2,193 672.5,193 647.2,207.2 	"/>
</g>
<g id="letter">
	<polygon fill="#A9A8A8" points="153,113.3 153,192.6 153,207.2 396.3,352 647.2,207.2 647.1,192.6 647,113.3 	"/>
</g>
<g id="world">
	<polygon fill="#D3D3D3" points="372.5,185.2 372.8,187.1 370,187.7 369.6,191.7 373,191.7 377.5,191.3 379.9,188.5 377.4,187.6
		376,186 373.9,182.8 373,178.1 369.2,178.9 368.1,180.5 368.1,182.3 370,183.6 	"/>
	<polygon fill="#D3D3D3" points="369.3,186.8 369.5,184.3 367.3,183.3 364.1,184 361.8,187.7 361.8,190.2 364.5,190.2 	"/>
	<path fill="#D3D3D3" d="M304.2,199.2h-3.3v1.7h0.8c0,0,0.1,0.4,0.1,0.8l2.1-0.2l1.2-0.8l0.4-1.6l1.6-0.1l0.7-1.4l-1.5-0.3l-1.3,0
		L304.2,199.2z"/>
	<polygon fill="#D3D3D3" points="296.2,202.3 298.6,202.1 298.8,200.4 297.3,199.2 296.3,200.6 	"/>
	<polygon fill="#D3D3D3" points="528.2,262.9 525.7,264.8 532.7,273.3 537,270.8 	"/>
	<polygon fill="#D3D3D3" points="506,258.3 502.5,257.7 500,261.2 501.2,264.5 505.6,262.9 	"/>
	<polygon fill="#D3D3D3" points="440.4,311.2 440.4,316.4 443.7,319.6 446.7,314.8 452.6,306.1 455.4,292.6 451.8,292.6
		448.3,299.6 442.3,298.8 442.3,303.4 444.5,305.9 442.8,308.4 	"/>
	<path fill="#D3D3D3" d="M533.3,255.3l1.2-4.7l5.9,6.7l3.3,0.3l4.3-2.9l-0.7-4.3l-7.2-5.8l-0.3-5.2l2-2.8l3.6,1.1l-0.3,2.5l2.1,3.2
		l1.8-1.3l-1-3.8l10.2-3.6l4.4-3.7l-0.7-6.7l-8.8-9.3l-0.2-7.6h3.9l12.2,9.3l3.4-0.9l-2.3-3l-6.5-4l0.4-5.9l7.7,0l0.6-7.3l-3-3.9
		l1.8-1.9l3.8,3.8l1.2-1.6l-4.9-5.5l-12-1.4l-1.6-3.2l3.5-4.9l2.7,2.1l8.3,0.7l10.4-7l1.7,2.2l-2.3,3.6v3.6l9.6,7.8l3-1.6l-1.1-5.2
		l-6.8-6.4l9-0.6v-2.6l4.3-0.9l-3.3-2.3l0.1-1.8l9.2,1.5l1.7-1.5l-12.4-5.2l-45-2.3l-4.2-2.1l-6.7-1l-5-0.2l-4.6,4.6l-1.9-0.1
		l-6.1-4.5h-17.9l-8.3-4.9l-16.6,1l-12.6,5.7l0.1,6.5l-3.9,1.2l-0.9-6.5l-1.5-2.3l-4.3-1.1l-1,3.9l1.3,3.2l-15.5-1l-7.4,3.4
		l-1.1-3.2l-1.9,0.5l-1.4,3.6l-3.9,3l-9.4-0.3l-0.4-2.1l9.9-0.4l2-1.7l-11.9-5.5l-14.5,0.4l-8.1,4.2l-3.1,5.5l-5.4,2.1l-2.3,2.5
		l0.5,2.9l2.8,0.4l1.7,4.2l4.7-1.9l0.8,5.6h-1.5l-3.9-0.6l-4.3,0.7l-4.2,5.9l-6,1l-0.9,5.1l2.6,0.6l-0.7,3.3l-6-1.2l-5.5,1.2
		l-1.1,3.1l0.9,6.4l3.3,1.5l5.4,0l3.7-0.3l1.1-2.9l5.7-7.4l3.8,0.8l3.7-3.3l0.7,2.6l9.1,6.1l-1.1,1.5l-4.1-0.2l1.5,2.2l2.5,0.6
		l3-1.2l-0.1-3.6l1.3-0.7l-1.1-1.1l-6.1-3.4l-1.6-4.5h5l1.6,1.6l4.4,3.8l0.2,4.5l4.5,4.8l1.7-6.6l3.1-1.7l0.6,5.4l3,3.4l9.2-0.1
		l2.7,2v4.8l-3.3,3h-9.3l-5.7-4.2l-5.9,0.6v3.6h-1.9l-2-1.5l-10.3-2.6v-6.7l-13.1,1l-4.1,2.2h-5.2l-2.6-0.3l-6.3,3.5v6.6l-12.9,9.3
		l1.1,3.9h2.6l-0.7,3.8l-1.8,0.7l-0.1,9.9l11.1,12.7h4.8l0.3-0.8h8.7l2.5-2.3h4.9l2.7,2.7l7.3,0.7l-1,9.8l8.2,14.4l-4.3,8.2l0.3,3.9
		l3.4,3.4v9.3l4.4,6v7.8h13.2L424,319l3.1-5.5l4-0.9v-4.6l2.6-3.1l5.5-7.6l-1.1-11.5l-2.4-4.3l10.9-10.4l11.9-17.1l-2.3-1.1
		l-12.4,2.6l-3.2-1.6l-13-24.6l0.9-1.1l13,15.7l0.3,4.9l3,3l6.2-0.4l12.7-9.2l4-2.6l-0.1-3.2l-4.3-0.5c0,0-14.9-7-14.9-7.3
		c0-0.3,0.1-6,0.1-6h3.3l0.5,4.2l6.9,4l7.9,0.4l17.1,2.8l4,2.5v3.9l-0.5,5.3l8.8,14.4l2.8,0.7l2.8-4.1l1.5-11.7l2.9-6.3l4.7-1.8
		l8.3,0.8l10.5,9.3v13.3h0l9.5,9.1l2.7-1.6L533.3,255.3z M409.5,168.5L409.5,168.5l-5.7,3.5v2.3l3.2,1.5l0.3,3.1l-4.6,6.8l-8-0.1
		l-0.5-1.6l5-2.6l0.1-9.5l8.5-5.9h1.8V168.5z M427.3,208.8L427.3,208.8L427.3,208.8l-7.5-0.3l-2.2,0.3v-5.1l1.7-1.9l1.8-0.6l4-0.5
		l0.9-1.4l1.6,0.8l0.2,4.7l4.4,1.8l0.4,2.1H427.3z M456.2,212.5l-1.3,1.3l-3-0.2l-0.6-0.9l-4.8-0.4l0.3-1.5l2.6-2.2v-1.8l-4.9-3.5
		l-0.2-4.5l1-2.2l3.9-0.4l3.3,1.4l0.2,2.3l-4.8-0.3l-0.2,2.1l5.9,3.9v2.9l2.6,1.9L456.2,212.5L456.2,212.5z"/>
	<path fill="#D3D3D3" d="M329.4,308.5l1.5-14l5-6.3l0.9-4.1l-4.6-1.5l-3-4.9l-10.3-0.1l-8.1-3.1l-0.4-5.8l-2.7-4.8l-7.3-0.1
		l-4.3-6.7l-3.8-1.8l-0.2,2l-6.9,0.4l-2.5-3.5l-7.2-1.5l-5.9,6.8l-9.3-1.6l-0.7-10.5l-6.8-1.2l2.7-5.1l-0.8-3l-8.9,6l-5.6-0.7
		l-2-4.4l1.2-4.5l3.1-5.7l7.1-3.6h13.8l0,4.2l4.9,2.3l-0.4-7.2l3.6-3.6l7.2-4.7l0.5-3.3l7.2-7.5l7.6-4.2l-0.7-0.5l5.1-4.9l1.9,0.5
		l0.9,1.1l2-2.2l0.4-0.2l-2.1-0.3l-2.2-0.7v-2.1l1.1-0.9h2.6l1.2,0.5l1,2l1.2-0.2v-0.1l0.4,0.1l3.6-0.6l0.5-1.7l2,0.5v1.9l-1.9,1.3
		l0.3,2.1l6.5,2c0,0,0,0,0,0.1l1.5-0.1l0.1-2.8l-5.1-2.3l-0.3-1.4l4.3-1.5l0.2-4l-4.4-2.7l-0.3-6.8l-6.1,3h-2.2l0.6-5.2l-8.3-2
		l-3.4,2.6v7.9l-6.2,1.9l-2.5,5.2l-2.7,0.4v-6.6l-5.8-0.8l-2.9-1.9l-1.2-4.3l10.4-6.1l5.1-1.5l0.5,3.4l2.8-0.1l0.2-1.7l3-0.4l0-0.6
		l-1.2-0.6l-0.3-1.8l3.6-0.3l2.2-2.3l0.2-0.2v0l0.7-0.7l7.7-1l3.4,2.9l-8.9,4.7l11.3,2.7l1.4-3.8h5l1.7-3.3l-3.5-0.9V162l-10.9-4.8
		l-7.5,0.9l-4.3,2.2l0.3,5.4l-4.4-0.7l-0.7-3l4.2-3.9l-7.7-0.4l-2.2,0.7l-1,2.6l2.9,0.5l-0.6,2.9l-4.9,0.3l-0.8,1.9l-7.2,0.2
		c0,0-0.2-4.1-0.4-4.1c-0.3,0,5.6-0.1,5.6-0.1l4.3-4.2l-2.3-1.2l-3.1,3l-5.1-0.3l-3.1-4.3h-6.6l-6.9,5.1h6.3l0.6,1.8l-1.7,1.5l7,0.2
		l1.1,2.5l-7.8-0.3l-0.4-1.9l-4.9-1.1l-2.6-1.4l-11.6,0.1l-3.6,3.5l-2.4-0.2l-2.7-1.6l-8-2.4h-14.7l-8.5,5.8l-5.7,0.9l-2.6,2
		l4.1,0.6v1.6h-8.7l-3.4,2.4l4.3,3.7l11.9,0.1l1.7-1.8h9.9l3.6,3.2l-0.2,5l3,2.8l-2.5,1.8l0.6,6.5l-9,10.9v10.3l4.8,2.3v9.2l4.7,7.9
		l3.7,0.6l0.5-2.7l-4.4-6.8l-0.9-6.7h2.6l1.1,6.9l6.4,9.4l-1.7,3l4.1,6.3l10.2,2.5v-1.6l4.1,0.6l-0.4,2.9l3.2,0.6l4.9,1.4l7,7.9
		l8.9,0.7l0.9,7.3l-5.4,3.7l63.7,37.9L329.4,308.5z M274.9,207.8h-3.7l0.6-2.5l1.7-0.2l0.4-0.9l2.7-0.4v2.3h0L274.9,207.8z
		 M277.5,201.6l-1.7,1.1l-2.2,0.4c0,0,0-3.5,0-3.8h3.9V201.6z M280.8,198.9l1.8,1.1l-1.4,1.2l-1.4-1.2L280.8,198.9z M278.7,201.8
		l4.4,1.3v2.3h-3.7l-1-1.5v-2.1H278.7z M275.5,195.5l2.4,2.2l-2.4,0.6V195.5z M265.4,195.9l3.3-1.4h4.6v1.4h1v2.4h-7l-2.6-0.7
		L265.4,195.9z M264.7,202.2l2.7-2.9h3.8l-4.9,6.9l-2-1.1L264.7,202.2z M261.2,185.8l2.7,0.6l-0.9,3.7l-3,1l-1.9-3.9L261.2,185.8z
		 M247.4,168.2V168h2.5l0.2-0.9h4.2v1.8l-1.2,1.6h-5.7C247.4,170.5,247.4,168.2,247.4,168.2z M251.4,173.9c0,0,2.6-0.5,2.8-0.5
		c0.2,0,0,2.5,0,2.5l-5.7,0.4l-1.1-1.3L251.4,173.9z"/>
</g>
<g id="shadow">
	<g opacity="0.6">
		<polygon fill="#A09F9F" points="153.1,199.1 153,207.2 396.3,352 396.2,344.1 		"/>
		<polygon fill="#A09F9F" points="396.3,344.1 396.3,352 647.2,207.2 647.2,198.9 		"/>
	</g>
</g>
<g id="Layer_7">
	<circle fill="#095093" cx="396.3" cy="352" r="41.8"/>
</g>
<g id="Layer_6">
	<g>
		<path fill="#F9F9FA" d="M372.4,354.8c0-14.3,12.7-26.4,26.6-26.4c12.9,0,21.1,9.3,21.1,20.5c0,11.3-7.4,16.6-13.3,16.6
			c-4,0-6-2.4-6.5-5l-0.1-0.4c-2.3,3.3-6,5.4-9.6,5.4c-6.5,0-10.4-4.8-10.4-11.3c0-9,7.4-16.4,15.1-16.4c4.1,0,7,1.9,8.4,4.5
			l0.7-3.6h7.6l-3.4,16.3c-0.1,0.3-0.2,1.2-0.2,1.6c0,2.1,1.1,3,2.5,3c2.6,0,6.3-3.1,6.3-10.8c0-10.6-7.2-17.9-18.5-17.9
			c-12.7,0-23.7,11.1-23.7,23.7c0,10.5,8,18.6,18.9,18.6c4.5,0,8.6-1.4,12.2-3.7l1.4,2c-4.2,2.7-9,4.2-13.9,4.2
			C381.5,375.9,372.4,366.7,372.4,354.8z M401,355l1.7-7.8c-0.7-1.5-2.4-3.4-5.4-3.4c-5.4,0-9.2,4.8-9.2,9.7c0,3.5,2.1,5.9,5.5,5.9
			C397.1,359.5,399.5,357.1,401,355z"/>
	</g>
</g>
</svg>
